<svg xmlns="http://www.w3.org/2000/svg" fill-rule="evenodd" fill="#000" viewBox="0 0 16 16">
  <path d="M 8.930195,6.3771175 V 1.4409179 h 0.92537 v 4.0049326 l 0.956466,-0.945743 V 1.4409179 h 0.925906 v 2.1273856 l 0.946815,-0.937165 5.36e-4,-1.1902206 h 0.935021 v 0.9259056 h 0.92537 v 0.957002 l -1.23204,5.37e-4 -0.925906,0.924833 h 2.157946 v 0.92537 h -3.094038 l -0.932876,0.957002 h 4.026914 v 0.92537 H 9.587497 l -0.941454,0.956466 h 5.899636 v 0.925906 H 7.707806 L 6.77493,9.8802275 h 7.770749 V 10.821682 H 5.844735 l -0.931803,0.92537 H 15.496247 L 15.5,13.629424 H 4.239545 v 1.88237 H 2.372721 v -1.88237 H 0.5 V 11.747052 H 2.372721 L 2.372185,0.5 2.372721,0.50375 4.239545,0.5 V 11.086533 L 5.190114,10.14347 V 1.4409179 H 6.121917 V 9.2068415 L 7.063371,8.2669955 V 1.4409179 h 0.935021 v 5.8835516 z" />
</svg>
